<svg width="84" height="47" viewBox="0 0 84 47" fill="none" xmlns="http://www.w3.org/2000/svg">
<path d="M6.72133 14.4715C5.55554 14.3771 4.51113 13.8188 3.5881 12.7967C2.84432 11.6312 2.5169 10.4994 2.60583 9.40133C2.75827 7.51895 4.39054 5.99325 7.50262 4.82424C10.6274 3.49836 14.5595 2.55364 19.2989 1.9901C24.051 1.26969 28.8673 0.791325 33.7478 0.555001C38.8076 0.175301 43.3486 -0.0095619 47.3711 0.000407915C51.3935 0.0103781 54.2374 0.0827999 55.9028 0.217676C60.2329 0.568353 64.6272 1.16108 69.0857 1.99584C73.5442 2.8306 77.8044 4.04404 81.8663 5.63615C82.1867 5.81999 82.507 6.00383 82.8274 6.18767C83.3143 6.385 83.5451 6.64053 83.5197 6.95426C83.4689 7.58172 82.8479 8.00511 81.6567 8.22443C80.4782 8.28689 79.0562 8.25068 77.3908 8.1158C75.7254 7.98093 74.0663 7.76762 72.4136 7.47587C70.7609 7.18413 69.6847 7.01803 69.1851 6.97757C62.1904 6.41109 54.991 6.30172 47.5869 6.64946C40.3494 7.01069 33.2594 7.6207 26.3168 8.47951C23.2683 8.86419 20.2839 9.49092 17.3638 10.3597C14.4564 11.0716 11.6837 12.1892 9.04586 13.7124C7.9958 14.2589 7.22095 14.5119 6.72133 14.4715ZM4.12972 46.4721C2.96393 46.3777 1.91952 45.8194 0.996495 44.7973C0.252714 43.6318 -0.0747114 42.5 0.0142164 41.4019C0.166664 39.5195 1.79893 37.9938 4.91101 36.8248C8.0358 35.4989 11.9679 34.5542 16.7073 33.9907C21.4594 33.2703 26.2757 32.7919 31.1562 32.5556C36.216 32.1759 40.757 31.991 44.7794 32.001C48.8018 32.011 51.6458 32.0834 53.3112 32.2183C57.6412 32.569 62.0355 33.1617 66.4941 33.9964C70.9526 34.8312 75.2128 36.0446 79.2747 37.6368C79.6078 37.6637 79.9281 37.8476 80.2358 38.1883C80.7227 38.3856 80.9535 38.6411 80.9281 38.9549C80.8773 39.5823 80.2563 40.0057 79.0651 40.225C77.8866 40.2875 76.4646 40.2513 74.7992 40.1164C73.1338 39.9815 71.4747 39.7682 69.822 39.4765C68.1693 39.1847 67.0931 39.0186 66.5935 38.9782C59.5988 38.4117 52.3994 38.3023 44.9953 38.6501C37.7578 39.0113 30.6678 39.6213 23.7252 40.4801C20.6767 40.8648 17.6923 41.4915 14.7722 42.3603C11.8648 43.0722 9.09212 44.1897 6.45425 45.713C5.40419 46.2595 4.62934 46.5125 4.12972 46.4721Z" fill="white"/>
</svg>
