<svg width="241" height="124" viewBox="0 0 241 124" fill="none" xmlns="http://www.w3.org/2000/svg">
<path d="M199.825 11.7C203.405 11.7 206.75 12.3313 209.855 13.5975C212.95 14.8601 215.645 16.5933 217.933 18.7996C220.221 21.006 222.018 23.6007 223.323 26.5789C224.633 29.5662 225.285 32.7953 225.285 36.2596C225.285 39.5697 224.611 42.6823 223.259 45.5906C221.953 48.4872 220.156 51.0195 217.869 53.1834L217.865 53.1863C215.578 55.3103 212.886 57.0014 209.794 58.2625L209.789 58.2654C206.687 59.49 203.364 60.1004 199.825 60.1004C196.287 60.1004 192.964 59.49 189.861 58.2654L189.857 58.2635V58.2625C186.765 57.0014 184.073 55.3103 181.785 53.1863L181.781 53.1834C179.495 51.0193 177.678 48.487 176.332 45.5906L176.329 45.5857C175.019 42.6786 174.365 39.5675 174.365 36.2596C174.365 32.7953 175.018 29.5662 176.327 26.5789C177.633 23.6007 179.43 21.006 181.718 18.7996C184.006 16.5931 186.701 14.8601 189.797 13.5975C192.901 12.3314 196.245 11.7 199.825 11.7ZM199.825 15.9998C197.25 15.9998 194.944 16.4872 192.899 17.452L192.892 17.4559C190.844 18.383 189.107 19.7336 187.675 21.5135L187.672 21.5174C186.24 23.2594 185.127 25.3991 184.343 27.9471V27.949C183.561 30.4525 183.165 33.2813 183.165 36.4402C183.165 39.4355 183.559 42.142 184.34 44.5643H184.341C185.123 46.9497 186.233 48.9697 187.664 50.6336C189.094 52.2953 190.833 53.5712 192.885 54.4617C194.934 55.3507 197.244 55.7996 199.825 55.7996C202.407 55.7996 204.696 55.3503 206.703 54.4627L206.706 54.4617C208.758 53.5712 210.496 52.2953 211.926 50.6336L211.931 50.6287C213.401 48.9655 214.529 46.9472 215.311 44.5643C216.092 42.142 216.485 39.4355 216.485 36.4402C216.485 33.2813 216.09 30.4525 215.308 27.949V27.9471C214.524 25.3991 213.412 23.2593 211.98 21.5174L211.976 21.5135C210.544 19.7336 208.806 18.383 206.759 17.4559L206.752 17.452C204.707 16.4872 202.401 15.9998 199.825 15.9998Z" fill="#C0A982" stroke="#0E0F11"/>
<path d="M137.406 59.5002H120.266V56.2346L120.752 56.2199C122.13 56.1805 123.209 56.0626 124.001 55.8752C124.795 55.6575 125.375 55.2888 125.776 54.7873C126.182 54.2795 126.479 53.534 126.632 52.507C126.787 51.421 126.866 49.9485 126.866 48.0803V23.7199C126.866 22.053 126.787 20.7 126.632 19.6535L126.631 19.6438L126.63 19.633C126.515 18.561 126.251 17.7705 125.875 17.2229L125.868 17.2141L125.862 17.2053C125.533 16.6795 125.04 16.3079 124.343 16.0988L124.332 16.0959L124.321 16.092C123.58 15.8328 122.59 15.6577 121.335 15.5793L120.866 15.55V12.3H133.497L133.646 12.5002L159.207 46.5998V24.1398C159.207 22.1899 159.127 20.6558 158.971 19.5285L158.969 19.5188L158.969 19.51C158.853 18.3519 158.587 17.5261 158.215 16.9836L158.208 16.9738L158.202 16.965C157.877 16.4456 157.392 16.0968 156.705 15.925L156.699 15.924C155.991 15.7377 155.013 15.6188 153.751 15.5793L153.266 15.5647V12.3H170.406V15.5656L169.921 15.5803C168.542 15.6197 167.445 15.757 166.618 15.9826L166.602 15.9865C165.857 16.164 165.299 16.5099 164.897 17.0119C164.493 17.5167 164.195 18.2802 164.042 19.3508C163.887 20.4375 163.806 21.891 163.806 23.7199V60.0998H159.458L159.308 59.9025L131.467 23.2092V47.6604C131.467 49.6431 131.525 51.1977 131.641 52.3313C131.795 53.4474 132.058 54.2663 132.402 54.8225C132.773 55.3593 133.27 55.7069 133.914 55.8762H133.913C134.664 56.0634 135.663 56.1806 136.922 56.2199L137.406 56.2355V59.5002Z" fill="#C0A982" stroke="#0E0F11"/>
<path d="M115.804 59.5002H95.364V56.2346L95.8494 56.2199C97.2278 56.1805 98.3066 56.0626 99.0984 55.8752C99.8928 55.6575 100.473 55.2888 100.874 54.7873C101.28 54.2795 101.577 53.534 101.729 52.507C101.884 51.421 101.964 49.9485 101.964 48.0803V23.7199C101.964 22.053 101.884 20.7 101.729 19.6535L101.728 19.6438L101.727 19.633C101.612 18.561 101.349 17.7705 100.972 17.2229L100.966 17.2141L100.96 17.2053C100.631 16.6795 100.137 16.3079 99.4402 16.0988L99.4294 16.0959L99.4187 16.092C98.678 15.8328 97.6875 15.6577 96.4324 15.5793L95.9636 15.55V12.3H115.204V15.5647L114.719 15.5793C113.471 15.6183 112.489 15.7731 111.756 16.0285L111.757 16.0295C111.098 16.2721 110.585 16.6826 110.204 17.2717C109.858 17.828 109.594 18.6485 109.439 19.7688C109.323 20.9026 109.264 22.3581 109.264 24.1398V47.6604C109.264 49.6507 109.344 51.2043 109.5 52.3313C109.653 53.4428 109.934 54.2545 110.309 54.8059C110.713 55.3412 111.267 55.6987 112 55.8732C112.835 56.0626 113.938 56.1805 115.318 56.2199L115.804 56.2346V59.5002Z" fill="#C0A982" stroke="#0E0F11"/>
<path d="M80.7148 59.5H56.9854V55.6523L57.4697 55.6377C59.1187 55.5885 60.4224 55.3921 61.3984 55.0654C62.3739 54.6887 63.0673 54.1875 63.5176 53.5801V53.5791C64.0177 52.9079 64.3543 52.0385 64.5059 50.9473L64.5068 50.9385L64.5088 50.9297C64.7028 49.8113 64.8017 48.4607 64.8018 46.873V6.57422C64.8018 6.17192 64.7285 5.92834 64.6396 5.78906L64.6143 5.74902L64.5967 5.70508C64.5432 5.57113 64.393 5.395 64.0127 5.22168L64.0039 5.21777L63.9961 5.21289C63.6826 5.05582 63.1785 4.93717 62.4434 4.88867L62.4268 4.8877L62.4102 4.88574C61.6797 4.78944 60.6823 4.73926 59.4092 4.73926C57.8619 4.73926 56.4174 4.81261 55.0752 4.96094L55.0762 4.96191C53.8361 5.10314 52.7586 5.52431 51.832 6.2207L51.8271 6.22461C50.9637 6.85558 50.23 7.87065 49.6514 9.32031C49.0825 10.7455 48.7643 12.76 48.7246 15.3945L48.7178 15.8867H45.5V0.5H91.8779L91.8984 0.979492L92.5 15.3662L92.5215 15.8867H89.0615L89.0352 15.415C88.9163 13.2803 88.6396 11.5144 88.2139 10.1084C87.7905 8.71021 87.1868 7.66384 86.4238 6.93555L86.4131 6.92676L86.4043 6.91602C85.6709 6.13519 84.73 5.57649 83.5654 5.24707C82.3791 4.91155 80.9438 4.73926 79.252 4.73926C77.7777 4.73927 76.5948 4.78905 75.6982 4.88672L75.6729 4.88867C74.8141 4.93757 74.1979 5.05853 73.793 5.22754C73.3765 5.40144 73.1739 5.58608 73.0859 5.74121C73.0133 5.89641 72.957 6.16102 72.957 6.57422V46.873C72.957 48.4608 73.0369 49.8147 73.1924 50.9385C73.3827 52.0296 73.7179 52.9034 74.1816 53.5791C74.676 54.1932 75.3733 54.6926 76.2979 55.0654C77.2742 55.3926 78.579 55.5885 80.2295 55.6377L80.7148 55.6523V59.5Z" fill="#C0A982" stroke="#0E0F11"/>
<path d="M234.654 66.9064L234.488 67.2306L222.345 90.9464V90.9474C217.49 100.371 215.114 107.421 215.114 112.149C215.114 113.036 215.315 113.608 215.629 113.956C215.934 114.295 216.42 114.505 217.186 114.505C218.212 114.505 219.509 114.117 221.095 113.277C222.644 112.457 224.313 111.073 226.101 109.098C228.373 106.446 230.311 103.94 231.916 101.58L231.918 101.577C233.616 99.1247 235.558 95.8112 237.743 91.63L237.75 91.6163L237.758 91.6036C238.052 91.1129 238.468 90.6466 239.044 90.6466C239.244 90.6466 239.487 90.6864 239.686 90.8517C239.901 91.0316 239.973 91.2815 239.973 91.504C239.973 91.7137 239.912 91.9303 239.83 92.1359C239.745 92.3474 239.624 92.5813 239.473 92.8331C237.757 96.0724 235.898 99.3107 233.898 102.549L233.899 102.55C231.973 105.729 229.614 108.714 226.825 111.502C223.36 114.967 220.048 116.791 216.899 116.791C214.294 116.791 212.272 115.88 210.923 114.013C209.596 112.175 208.971 109.479 208.971 106.005C208.971 104.219 209.16 102.273 209.534 100.168C206.741 105.114 203.946 108.96 201.14 111.686C197.775 114.954 194.359 116.649 190.898 116.649C189.239 116.649 187.76 116.232 186.479 115.387C185.202 114.544 184.15 113.293 183.311 111.663V111.662C181.93 109.189 181.255 106.104 181.255 102.434C181.255 99.4326 181.691 96.2932 182.558 93.0187L182.561 93.0089C184.21 87.2859 187.695 81.9257 192.983 76.9259L192.989 76.921C198.846 71.5444 204.485 68.7882 209.899 68.7882C212.384 68.7882 214.33 69.5384 215.641 71.1115C216.937 72.6672 217.543 74.946 217.543 77.8605C217.543 79.2232 217.387 80.7045 217.081 82.3038L223.74 69.2052L223.879 68.9318H224.897L225.043 69.174C225.188 69.4154 225.567 69.6456 226.472 69.6456C228.201 69.6456 230.516 68.5946 233.452 66.3214L233.8 66.0519L234.654 66.9064ZM211.042 70.9318C209.374 70.9318 207.547 71.6233 205.552 73.0851C203.557 74.5466 201.423 76.756 199.153 79.7345C197.36 82.1888 195.804 84.5929 194.484 86.9474L194.485 86.9484C193.257 89.3113 192.267 91.5758 191.514 93.7404H191.513C189.526 99.418 188.541 104.504 188.541 109.005C188.541 111.023 188.826 112.457 189.335 113.369C189.585 113.818 189.885 114.131 190.226 114.335C190.566 114.538 190.975 114.649 191.47 114.649C193.912 114.649 196.832 112.911 200.243 109.168C203.634 105.447 207.423 99.8425 211.605 92.3322L211.606 92.3312C214.237 87.6345 215.543 82.9081 215.543 78.1466C215.543 75.6131 215.129 73.7987 214.373 72.632C213.641 71.5026 212.557 70.9318 211.042 70.9318Z" fill="#C0A982" stroke="#0E0F11"/>
<path d="M162.109 67.4935L162.253 67.7796L162.414 68.1019L162.159 68.3567C160.87 69.6455 159.086 72.1131 156.802 75.802C154.523 79.4803 151.767 84.3398 148.531 90.3831C144.747 97.6688 142.876 104.254 142.876 110.148C142.876 111.872 143.158 113.078 143.652 113.84C144.122 114.565 144.813 114.934 145.804 114.934C148.527 114.934 151.541 113.47 154.857 110.389C158.124 107.354 161.628 102.798 165.37 96.7015C164.356 94.7774 163.877 91.9522 163.877 88.2894C163.877 87.1327 163.925 85.9761 164.021 84.8196L164.022 84.802L164.025 84.7845L164.596 81.0706C164.891 78.8231 165.623 76.4445 166.78 73.9368C167.502 72.2541 168.251 70.9531 169.038 70.0647C169.826 69.1745 170.702 68.6458 171.663 68.6458C172.747 68.6458 173.59 69.1345 174.132 70.0745C174.649 70.9732 174.877 72.2575 174.877 73.8606C174.877 79.4803 172.378 87.0423 167.469 96.512C167.669 97.6018 168.233 98.8066 169.202 100.129C170.269 101.46 171.467 102.076 172.805 102.076C176.589 102.076 180.179 98.9497 183.501 92.2122L183.502 92.2093C183.655 91.9023 183.846 91.615 184.1 91.4456C184.237 91.3544 184.404 91.2903 184.593 91.2903C184.757 91.2904 184.904 91.341 185.03 91.4144L185.137 91.4739C185.382 91.6253 185.576 91.8583 185.623 92.1839C185.669 92.5062 185.55 92.8181 185.392 93.0892L185.394 93.0901C183.574 96.6356 181.688 99.3517 179.73 101.214L179.731 101.215C177.831 103.115 175.563 104.076 172.949 104.076C171.501 104.076 170.117 103.609 168.806 102.701L168.788 102.689L168.771 102.675C167.771 101.841 166.923 100.713 166.219 99.3089C164.099 103.517 161.56 107.15 158.597 110.203L158.598 110.204C154.366 114.725 150.195 117.077 146.09 117.077C143.026 117.077 140.649 116.107 139.055 114.102C137.479 112.118 136.732 109.201 136.732 105.434C136.732 102.316 137.413 98.7365 138.758 94.7034L138.765 94.6839C139.535 92.6635 140.924 89.5519 142.925 85.3597L142.928 85.3519C145.027 81.1538 147.792 75.9093 151.222 69.6204L151.365 69.3597H152.091L152.213 69.4358C152.899 69.8648 153.617 70.0745 154.376 70.0745C156.519 70.0745 158.846 69.1817 161.365 67.3157L161.844 66.9612L162.109 67.4935Z" fill="#C0A982" stroke="#0E0F11"/>
<path d="M136.853 66.9064L136.687 67.2306L124.543 90.9464V90.9474C119.689 100.371 117.313 107.421 117.313 112.149C117.313 113.036 117.514 113.608 117.828 113.956C118.132 114.295 118.618 114.505 119.384 114.505C120.411 114.505 121.707 114.117 123.293 113.277C124.843 112.457 126.512 111.073 128.299 109.098C130.572 106.446 132.51 103.94 134.115 101.58L134.117 101.577C135.814 99.1247 137.756 95.8112 139.942 91.63L139.949 91.6163L139.956 91.6036C140.251 91.1129 140.666 90.6466 141.243 90.6466C141.442 90.6466 141.686 90.6864 141.884 90.8517C142.1 91.0316 142.171 91.2815 142.171 91.504C142.171 91.7137 142.111 91.9303 142.029 92.1359C141.944 92.3474 141.822 92.5813 141.671 92.8331C139.956 96.0724 138.097 99.3107 136.097 102.549L136.098 102.55C134.171 105.729 131.812 108.714 129.024 111.502C125.559 114.967 122.247 116.791 119.098 116.791C116.493 116.791 114.471 115.88 113.121 114.013C111.794 112.175 111.169 109.479 111.169 106.005C111.169 104.219 111.359 102.273 111.733 100.168C108.94 105.114 106.145 108.96 103.338 111.686C99.9735 114.954 96.5577 116.649 93.097 116.649C91.438 116.649 89.9586 116.232 88.6781 115.387C87.401 114.544 86.3486 113.293 85.5092 111.663V111.662C84.1284 109.189 83.4535 106.104 83.4535 102.434C83.4535 99.4326 83.8894 96.2932 84.7562 93.0187L84.7592 93.0089C86.4082 87.2858 89.8938 81.9257 95.182 76.9259L95.1879 76.921C101.045 71.5444 106.684 68.7882 112.098 68.7882C114.582 68.7882 116.528 69.5384 117.839 71.1115C119.136 72.6672 119.742 74.946 119.742 77.8605C119.742 79.2232 119.585 80.7045 119.28 82.3038L125.939 69.2052L126.078 68.9318H127.096L127.242 69.174C127.386 69.4154 127.766 69.6456 128.67 69.6456C130.399 69.6456 132.714 68.5946 135.651 66.3214L135.998 66.0519L136.853 66.9064ZM113.241 70.9318C111.572 70.9318 109.746 71.6233 107.75 73.0851C105.755 74.5466 103.621 76.756 101.352 79.7345C99.5588 82.1888 98.0023 84.5929 96.683 86.9474L96.684 86.9484C95.4552 89.3113 94.4652 91.5758 93.7123 93.7404H93.7113C91.7241 99.418 90.7396 104.504 90.7396 109.005C90.7396 111.023 91.0242 112.457 91.5336 113.369C91.7839 113.818 92.0834 114.131 92.4242 114.335C92.7646 114.538 93.1738 114.649 93.6683 114.649C96.1104 114.649 99.0303 112.911 102.442 109.168C105.833 105.447 109.621 99.8425 113.804 92.3322L113.805 92.3312C116.435 87.6345 117.741 82.9081 117.742 78.1466C117.742 75.6131 117.328 73.7987 116.572 72.632C115.84 71.5026 114.756 70.9318 113.241 70.9318Z" fill="#C0A982" stroke="#0E0F11"/>
<path d="M28.8584 21.5C31.6656 21.5 34.3791 21.9348 36.9961 22.8047C39.5445 23.5328 42.0047 24.6443 44.375 26.1357L44.8477 26.4384L44.8906 26.4668L45.0293 26.6054C45.1666 26.692 45.3041 26.8225 45.3701 27.0205C45.4315 27.2047 45.4092 27.3798 45.3594 27.5254V27.8574C45.3594 28.04 45.3319 28.2643 45.2041 28.456C45.0525 28.6835 44.815 28.786 44.5742 28.7861C44.4541 28.7861 44.3457 28.748 44.291 28.7275C44.2206 28.7011 44.1437 28.6656 44.0645 28.6259C43.9049 28.5462 43.7021 28.4314 43.46 28.2861C39.2405 25.7545 34.9942 24.5 30.7158 24.5C26.606 24.5 23.2389 25.4799 20.5801 27.4052L20.5723 27.4111L20.5645 27.416C17.5775 29.4073 16.0723 32.3846 16.0723 36.4297C16.0724 40.1354 17.8682 43.763 21.5771 47.3174C34.0056 35.9097 49.5889 30.2148 68.29 30.2148C74.6222 30.2149 80.1168 31.1256 84.7607 32.9638H84.7598C88.09 34.1722 90.6344 35.7585 92.3486 37.7461C94.0731 39.7456 94.9336 42.1249 94.9336 44.8584C94.9336 49.1201 92.1315 52.7311 86.8223 55.7236L86.8213 55.7226C84.988 56.8784 82.9665 57.8896 80.7578 58.7539L80.7402 58.7597C78.5258 59.53 76.1698 60.1544 73.6729 60.6347C69.3509 61.4991 64.6988 61.9306 59.7178 61.9306C46.7651 61.9306 35.604 59.2677 26.252 53.9238C15.7369 65.8579 10.5011 78.7368 10.501 92.5752C10.501 99.9738 12.1366 106.187 15.3818 111.24L15.7012 111.727L15.7051 111.73H15.7041C19.6098 117.682 25.1663 120.648 32.4307 120.648C46.4267 120.648 57.9012 113.947 66.873 100.442C69.8896 95.8224 71.3613 91.6805 71.3613 88.0039C71.3613 84.7988 70.2687 82.2224 68.0947 80.2295L68.0791 80.2138C65.9899 78.1246 63.3585 77.0742 60.1465 77.0742C57.0134 77.0742 54.1115 77.9942 51.4297 79.8437L51.4219 79.8486L51.4131 79.8545C48.6454 81.6074 46.667 83.9998 45.4678 87.0439C45.3156 87.448 45.1357 87.7936 44.9141 88.0468C44.6855 88.308 44.3809 88.5037 44.0029 88.5039C43.7021 88.5039 43.3969 88.4043 43.1836 88.1377C42.9873 87.8923 42.9307 87.5806 42.9307 87.289V86.8857L42.9834 86.7802C43.0243 86.6983 43.0495 86.6376 43.0635 86.5957C43.071 86.573 43.0736 86.5608 43.0742 86.5576V86.4902L43.1025 86.4091C44.381 82.7706 46.745 79.9177 50.1738 77.8603C53.3961 75.8126 56.9622 74.7891 60.8604 74.789C65.0651 74.789 68.6169 76.0636 71.4805 78.6308L71.4912 78.6396L71.5 78.6494C74.1752 81.3245 75.5039 84.743 75.5039 88.8613C75.5038 93.5402 74.0887 98.0163 71.2783 102.28C67.4155 108.456 61.7755 113.51 54.3809 117.447L54.3799 117.446C47.2658 121.291 39.9479 123.22 32.4307 123.22C22.6122 123.22 14.805 120.329 9.07227 114.499L9.06934 114.496C3.34215 108.575 0.500037 100.678 0.5 90.8613C0.5 75.5256 6.82399 61.6227 19.4102 49.165C14.7459 45.0041 12.3575 40.4245 12.3574 35.4297C12.3574 30.8509 13.7264 27.3336 16.5371 24.9746C19.331 22.6298 23.4672 21.5 28.8584 21.5ZM69.4326 32.9287C54.2505 32.9287 40.4752 39.2734 28.0947 52.0273C36.4456 56.721 45.8393 59.0732 56.2891 59.0732C59.7858 59.0732 63.2346 58.7904 66.6357 58.2236C70.0395 57.6563 73.4437 56.8991 76.8486 55.9541C81.5789 54.4404 85.0805 52.6571 87.3887 50.6259C89.6843 48.6058 90.791 46.3542 90.791 43.8584C90.791 42.0365 90.3563 40.4656 89.5029 39.1269C88.6482 37.7862 87.3552 36.65 85.5947 35.7295C82.0589 33.8807 76.6914 32.9287 69.4326 32.9287Z" fill="#C0A982" stroke="#0E0F11"/>
</svg>
